<svg width="55" height="55" viewBox="0 0 55 55" fill="none" xmlns="http://www.w3.org/2000/svg">
<path d="M38.2313 0.00214623C28.9702 0.00214623 21.4626 4.14228 21.4626 9.25681C21.4626 14.3713 28.9723 18.5136 38.2313 18.5136C47.4924 18.5136 55 14.3713 55 9.25681C55 4.14228 47.4902 0 38.2313 0V0.00214623ZM55 12.0062C54.9957 17.1207 47.4924 21.263 38.2313 21.263C28.9959 21.263 21.5055 17.1658 21.4626 12.0748V15.6956C21.4626 17.8805 22.8619 19.8808 25.1541 21.4647C27.4721 22.0957 29.5368 22.9714 31.2559 24.0789C33.3872 24.6197 35.7309 24.9502 38.2313 24.9502C47.4924 24.9502 55 20.8101 55 15.6956V12.0062ZM55 18.4449C55 23.5595 47.4924 27.7017 38.2313 27.7017C37.1045 27.7017 36.0099 27.618 34.9454 27.5C35.7854 28.6313 36.3585 29.9382 36.6216 31.3225C37.156 31.3525 37.684 31.389 38.2313 31.389C47.4924 31.389 55 27.2489 55 22.1344V18.4449ZM16.7687 23.6088C7.50761 23.6088 0 27.7511 0 32.8656C0 37.9802 7.50976 42.1225 16.7687 42.1225C26.0298 42.1225 33.5374 37.9802 33.5374 32.8656C33.5374 27.7511 26.0277 23.6088 16.7687 23.6088ZM55 24.8837C54.9957 29.9982 47.4924 34.1405 38.2313 34.1405C37.6926 34.1405 37.1474 34.1019 36.6216 34.0718C36.598 34.2328 36.5851 34.4474 36.5551 34.6084C36.6624 34.9325 36.7547 35.2523 36.7547 35.6171V37.7634C37.2419 37.787 37.7312 37.8278 38.2313 37.8278C47.4924 37.8278 55 33.6877 55 28.5731V24.8837ZM55 31.3225C54.9957 36.437 47.4924 40.5793 38.2313 40.5793C37.6926 40.5793 37.1474 40.5407 36.6216 40.5106C36.598 40.6716 36.5851 40.8862 36.5551 41.0472C36.6624 41.3691 36.7547 41.6911 36.7547 42.0559V44.2022C37.2419 44.2258 37.7312 44.2666 38.2313 44.2666C47.4924 44.2666 55 40.1264 55 35.0119V31.3225ZM33.5374 35.615C33.5331 40.7295 26.0298 44.8718 16.7687 44.8718C7.53336 44.8718 0.0429252 40.7746 0 35.6815V39.3044C0 44.4189 7.50546 48.5612 16.7687 48.5612C26.032 48.5612 33.5374 44.4189 33.5374 39.3044V35.615ZM33.5374 42.0538C33.5331 47.1683 26.0298 51.3106 16.7687 51.3106C7.53336 51.3106 0.0429252 47.2134 0 42.1203V45.7432C0 50.8577 7.50546 55 16.7687 55C26.032 55 33.5374 50.8577 33.5374 45.7432V42.0538Z" fill="#FFC700"/>
</svg>
