<svg width="24" height="25" viewBox="0 0 24 25" fill="none" xmlns="http://www.w3.org/2000/svg">
<path d="M24 12C24 8.8174 22.7357 5.76515 20.4852 3.51472C18.2348 1.26428 15.1826 -3.8147e-06 12 -3.8147e-06C8.81736 -3.8147e-06 5.76511 1.26428 3.51467 3.51472C1.26424 5.76515 -4.57764e-05 8.8174 -4.57764e-05 12L0.0104542 12.519L0.0494542 13.092C0.18502 14.6014 0.607051 16.0711 1.29295 17.4225L1.38745 17.6025L0.0224544 23.0685L0.00145411 23.193V23.316C0.0109814 23.4241 0.0438455 23.5288 0.097778 23.623C0.15171 23.7171 0.225427 23.7984 0.313842 23.8613C0.402256 23.9242 0.503263 23.9672 0.609891 23.9872C0.71652 24.0073 0.826231 24.004 0.931454 23.9775L6.39895 22.6125L6.57895 22.7085C8.40863 23.635 10.4452 24.0771 12.4944 23.9926C14.5435 23.9081 16.5368 23.2998 18.284 22.2258C20.0312 21.1519 21.4739 19.648 22.4746 17.8578C23.4753 16.0676 24.0004 14.0509 24 12ZM1.49995 12C1.50062 9.6944 2.26013 7.45312 3.66125 5.62211C5.06237 3.79109 7.0272 2.47215 9.25246 1.86885C11.4777 1.26556 13.8397 1.41146 15.9738 2.28403C18.1079 3.15661 19.8955 4.70735 21.0606 6.69688C22.2257 8.68642 22.7036 11.0041 22.4205 13.2923C22.1374 15.5804 21.1091 17.7118 19.4942 19.3574C17.8793 21.003 15.7677 22.0713 13.4853 22.3974C11.2029 22.7236 8.87659 22.2894 6.86545 21.162L6.73495 21.1035L6.59845 21.072C6.50435 21.0592 6.40867 21.0643 6.31645 21.087L1.78045 22.218L2.91445 17.688L2.93545 17.5455C2.94334 17.4033 2.91056 17.2618 2.84095 17.1375C1.95905 15.569 1.49714 13.7994 1.49995 12Z" fill="#333333"/>
<circle cx="6.5" cy="11.5" r="1.5" fill="#333333"/>
<circle cx="11.5" cy="11.5" r="1.5" fill="#333333"/>
<circle cx="16.5" cy="11.5" r="1.5" fill="#333333"/>
</svg>
