<svg width="60" height="60" viewBox="0 0 60 60" fill="none" xmlns="http://www.w3.org/2000/svg">
<path d="M18.75 50H47.5L55 57.5V31.25C55 28.5 52.75 26.25 50 26.25H18.75C16 26.25 13.75 28.5 13.75 31.25V45C13.75 47.75 16 50 18.75 50Z" fill="#7CB048"/>
<path d="M36 41H31.5L30.625 43.625H27.875L32.5 31.125H34.875L39.5 43.625H36.75L36 41ZM32.125 39H35.25L33.75 34.25L32.125 39Z" fill="white"/>
<path d="M41.25 31.25H12.5L5 38.75V10C5 7.25 7.25 5 10 5H41.25C44 5 46.25 7.25 46.25 10V26.25C46.25 29 44 31.25 41.25 31.25Z" fill="#333333"/>
<path d="M31.75 17.75C31.75 19 31.5 20 31.125 20.875C30.75 21.75 30.25 22.5 29.5 23L31.625 24.625L30 26.125L27.25 24C27 24 26.625 24.125 26.25 24.125C25.5 24.125 24.75 24 24 23.75C23.375 23.5 22.75 23 22.25 22.5C21.75 22 21.375 21.25 21.125 20.5C20.875 19.75 20.75 18.875 20.75 17.875V17.375C20.75 16.375 20.875 15.5 21.125 14.75C21.375 14 21.75 13.25 22.25 12.75C22.75 12.25 23.25 11.75 24 11.5C24.625 11.25 25.375 11.125 26.25 11.125C27 11.125 27.75 11.25 28.5 11.5C29.125 11.75 29.75 12.25 30.25 12.75C30.75 13.25 31.125 14 31.375 14.75C31.625 15.5 31.75 16.375 31.75 17.375V17.75ZM29 17.125C29 15.75 28.75 14.75 28.25 14.125C27.75 13.375 27.125 13.125 26.25 13.125C25.375 13.125 24.625 13.5 24.25 14.125C23.75 14.875 23.5 15.875 23.5 17.125V17.75C23.5 18.375 23.625 19 23.75 19.5C23.875 20 24 20.5 24.25 20.75C24.5 21.125 24.75 21.375 25.125 21.5C25.5 21.625 25.875 21.75 26.25 21.75C27.125 21.75 27.875 21.375 28.25 20.75C28.75 20 29 19 29 17.625V17.125Z" fill="white"/>
</svg>
