<svg width="40" height="40" viewBox="0 0 40 40" fill="none" xmlns="http://www.w3.org/2000/svg">
<rect width="40" height="40" rx="20" fill="#333333"/>
<path d="M26.9388 3.00129C21.3821 3.00129 16.8775 5.48537 16.8775 8.55409C16.8775 11.6228 21.3834 14.1082 26.9388 14.1082C32.4954 14.1082 37 11.6228 37 8.55409C37 5.48537 32.4941 3 26.9388 3V3.00129ZM37 10.2037C36.9974 13.2724 32.4954 15.7578 26.9388 15.7578C21.3976 15.7578 16.9033 13.2995 16.8775 10.2449V12.4173C16.8775 13.7283 17.7172 14.9285 19.0925 15.8788C20.4833 16.2574 21.7221 16.7828 22.7536 17.4473C24.0323 17.7718 25.4385 17.9701 26.9388 17.9701C32.4954 17.9701 37 15.4861 37 12.4173V10.2037ZM37 14.067C37 17.1357 32.4954 19.621 26.9388 19.621C26.2627 19.621 25.6059 19.5708 24.9672 19.5C25.4712 20.1788 25.8151 20.9629 25.973 21.7935C26.2936 21.8115 26.6104 21.8334 26.9388 21.8334C32.4954 21.8334 37 19.3493 37 16.2806V14.067ZM14.0612 17.1653C8.50457 17.1653 4 19.6507 4 22.7194C4 25.7881 8.50585 28.2735 14.0612 28.2735C19.6179 28.2735 24.1225 25.7881 24.1225 22.7194C24.1225 19.6507 19.6166 17.1653 14.0612 17.1653ZM37 17.9302C36.9974 20.9989 32.4954 23.4843 26.9388 23.4843C26.6155 23.4843 26.2885 23.4611 25.973 23.4431C25.9588 23.5397 25.9511 23.6685 25.933 23.765C25.9974 23.9595 26.0528 24.1514 26.0528 24.3703V25.658C26.3451 25.6722 26.6387 25.6967 26.9388 25.6967C32.4954 25.6967 37 23.2126 37 20.1439V17.9302ZM37 21.7935C36.9974 24.8622 32.4954 27.3476 26.9388 27.3476C26.6155 27.3476 26.2885 27.3244 25.973 27.3064C25.9588 27.403 25.9511 27.5317 25.933 27.6283C25.9974 27.8215 26.0528 28.0146 26.0528 28.2336V29.5213C26.3451 29.5355 26.6387 29.5599 26.9388 29.5599C32.4954 29.5599 37 27.0759 37 24.0071V21.7935ZM24.1225 24.369C24.1199 27.4377 19.6179 29.9231 14.0612 29.9231C8.52002 29.9231 4.02576 27.4648 4 24.4089V26.5827C4 29.6514 8.50328 32.1367 14.0612 32.1367C19.6192 32.1367 24.1225 29.6514 24.1225 26.5827V24.369ZM24.1225 28.2323C24.1199 31.301 19.6179 33.7864 14.0612 33.7864C8.52002 33.7864 4.02576 31.328 4 28.2722V30.4459C4 33.5146 8.50328 36 14.0612 36C19.6192 36 24.1225 33.5146 24.1225 30.4459V28.2323Z" fill="#FFC700"/>
</svg>
