<svg width="52" height="59" viewBox="0 0 52 59" fill="none" xmlns="http://www.w3.org/2000/svg">
<path fill-rule="evenodd" clip-rule="evenodd" d="M38.5636 21.06C42.3504 23.7992 46.9902 25.4096 52 25.4096V15.6522C51.0509 15.6522 50.1066 15.5524 49.1791 15.3529V23.0329C44.1693 23.0329 39.5319 21.42 35.7427 18.6833V38.5923C35.7427 48.5517 27.763 56.6257 17.9211 56.6257C14.2497 56.6257 10.8353 55.5018 8 53.5751C11.2366 56.9225 15.749 59 20.742 59C30.5839 59 38.5636 50.926 38.5636 40.9666V21.06ZM42.0452 11.2174C40.111 9.07908 38.8399 6.31313 38.5636 3.25526V2H35.8893C36.562 5.88498 38.8591 9.20558 42.0452 11.2174ZM14.2256 45.9341C13.1444 44.4988 12.5605 42.7449 12.5629 40.9398C12.5629 36.3834 16.2128 32.6906 20.7156 32.6906C21.5542 32.6906 22.3879 32.8196 23.1881 33.0774V23.1035C22.2534 22.9745 21.3115 22.9186 20.3672 22.938V30.7007C19.5671 30.4428 18.7333 30.3139 17.8923 30.3139C13.3895 30.3139 9.73962 34.0067 9.73962 38.5631C9.74202 41.7864 11.5657 44.5767 14.2256 45.9341Z" fill="#EC407A"/>
<path fill-rule="evenodd" clip-rule="evenodd" d="M35.6373 18.7968C39.4033 21.5547 44.0177 23.1761 49 23.1761V15.4438C46.2185 14.8364 43.7572 13.3473 41.9052 11.2777C38.7366 9.25218 36.4545 5.91143 35.7855 2H28.8006V41.2318C28.7839 45.8046 25.1612 49.5078 20.6927 49.5078C18.0593 49.5078 15.7199 48.2219 14.2383 46.2307C11.593 44.864 9.77932 42.0548 9.77932 38.812C9.77932 34.2246 13.4091 30.5066 17.8873 30.5066C18.7451 30.5066 19.5719 30.6438 20.3486 30.8961V23.083C10.7328 23.2863 3 31.3345 3 41.2343C3 46.1768 4.92602 50.6565 8.05163 53.9287C10.8714 55.8685 14.267 57 17.9183 57C27.7062 57 35.6421 48.871 35.6421 38.8438L35.6373 18.7968Z" fill="white"/>
<path fill-rule="evenodd" clip-rule="evenodd" d="M49 15.7454V13.6662C46.4812 13.671 44.0151 12.9552 41.8777 11.6015C43.768 13.7027 46.2581 15.1514 49 15.7454ZM35.7317 2.37874C35.6669 2.00622 35.6189 1.63371 35.5853 1.25632V0H25.9034V39.002C25.889 43.5477 22.2498 47.229 17.7639 47.229C16.4469 47.229 15.2043 46.9125 14.1032 46.3476C15.5905 48.3271 17.939 49.6053 20.5826 49.6053C25.0685 49.6053 28.7053 45.924 28.7221 41.3783V2.37874H35.7317ZM20.2348 23.3369V21.1238C19.4263 21.0118 18.6107 20.9558 17.7927 20.9558C7.96436 20.9558 0 29.0367 0 39.0045C0 45.2544 3.13057 50.7618 7.8876 54C4.74983 50.7472 2.81631 46.2941 2.81631 41.3808C2.81631 31.5396 10.5816 23.539 20.2348 23.3369Z" fill="#81D4FA"/>
</svg>
