<svg width="61" height="61" viewBox="0 0 61 61" fill="none" xmlns="http://www.w3.org/2000/svg">
<path d="M47.4037 60.8581L13.6537 60.8902C6.22872 60.8969 0.14866 54.8287 0.140223 47.4037L0.10816 13.6537C0.10141 6.22869 6.16966 0.148629 13.5947 0.140192L47.3447 0.108129C54.7697 0.101379 60.8497 6.16963 60.8582 13.5946L60.8902 47.3446C60.8987 54.7713 54.8287 60.8514 47.4037 60.8581Z" fill="url(#paint0_radial_525_5)"/>
<path d="M47.4037 60.8581L13.6537 60.8902C6.22872 60.8969 0.14866 54.8287 0.140223 47.4037L0.10816 13.6537C0.10141 6.22869 6.16966 0.148629 13.5947 0.140192L47.3447 0.108129C54.7697 0.101379 60.8497 6.16963 60.8582 13.5946L60.8902 47.3446C60.8987 54.7713 54.8287 60.8514 47.4037 60.8581Z" fill="url(#paint1_radial_525_5)"/>
<path d="M30.5 42.3125C23.9879 42.3125 18.6875 37.0138 18.6875 30.5C18.6875 23.9863 23.9879 18.6875 30.5 18.6875C37.0121 18.6875 42.3125 23.9863 42.3125 30.5C42.3125 37.0138 37.0121 42.3125 30.5 42.3125ZM30.5 22.0625C25.8476 22.0625 22.0625 25.8476 22.0625 30.5C22.0625 35.1524 25.8476 38.9375 30.5 38.9375C35.1524 38.9375 38.9375 35.1524 38.9375 30.5C38.9375 25.8476 35.1524 22.0625 30.5 22.0625Z" fill="white"/>
<path d="M43.1562 20.375C44.5542 20.375 45.6875 19.2417 45.6875 17.8438C45.6875 16.4458 44.5542 15.3125 43.1562 15.3125C41.7583 15.3125 40.625 16.4458 40.625 17.8438C40.625 19.2417 41.7583 20.375 43.1562 20.375Z" fill="white"/>
<path d="M40.625 52.4375H20.375C13.8629 52.4375 8.5625 47.1387 8.5625 40.625V20.375C8.5625 13.8613 13.8629 8.5625 20.375 8.5625H40.625C47.1371 8.5625 52.4375 13.8613 52.4375 20.375V40.625C52.4375 47.1387 47.1371 52.4375 40.625 52.4375ZM20.375 11.9375C15.7226 11.9375 11.9375 15.7226 11.9375 20.375V40.625C11.9375 45.2774 15.7226 49.0625 20.375 49.0625H40.625C45.2774 49.0625 49.0625 45.2774 49.0625 40.625V20.375C49.0625 15.7226 45.2774 11.9375 40.625 11.9375H20.375Z" fill="white"/>
<defs>
<radialGradient id="paint0_radial_525_5" cx="0" cy="0" r="1" gradientUnits="userSpaceOnUse" gradientTransform="translate(22.7038 60.9341) scale(75.7671)">
<stop stop-color="#FFDD55"/>
<stop offset="0.328" stop-color="#FF543F"/>
<stop offset="0.348" stop-color="#FC5245"/>
<stop offset="0.504" stop-color="#E64771"/>
<stop offset="0.643" stop-color="#D53E91"/>
<stop offset="0.761" stop-color="#CC39A4"/>
<stop offset="0.841" stop-color="#C837AB"/>
</radialGradient>
<radialGradient id="paint1_radial_525_5" cx="0" cy="0" r="1" gradientUnits="userSpaceOnUse" gradientTransform="translate(9.88891 -0.650735) scale(50.3094 33.5212)">
<stop stop-color="#4168C9"/>
<stop offset="0.999" stop-color="#4168C9" stop-opacity="0"/>
</radialGradient>
</defs>
</svg>
